<svg width="33" height="28" viewBox="0 0 33 28" fill="none" xmlns="http://www.w3.org/2000/svg">
<path d="M4.888 27.192L2.6 21.648C3.94933 21.12 4.976 20.24 5.68 19.008C6.44267 17.7173 6.824 15.8107 6.824 13.288H0.928V-5.24521e-06H12.896V13.112C12.896 16.808 12.1333 19.8587 10.608 22.264C9.14133 24.6107 7.23467 26.2533 4.888 27.192ZM24.3958 27.192L22.1078 21.648C23.4571 21.12 24.4838 20.24 25.1878 19.008C25.9505 17.7173 26.3318 15.8107 26.3318 13.288H20.4358V-5.24521e-06H32.4038V13.112C32.4038 16.808 31.6411 19.8587 30.1158 22.264C28.6491 24.6107 26.7425 26.2533 24.3958 27.192Z" fill="white"/>
</svg>
